<?xml version="1.0" standalone="no"?>
<!DOCTYPE svg PUBLIC "-//W3C//DTD SVG 20010904//EN"
 "http://www.w3.org/TR/2001/REC-SVG-20010904/DTD/svg10.dtd">
<svg version="1.0" xmlns="http://www.w3.org/2000/svg"
 width="1600.000000pt" height="1600.000000pt" viewBox="0 0 1600.000000 1600.000000"
 preserveAspectRatio="xMidYMid meet">
<metadata>
Created by potrace 1.11, written by Peter Selinger 2001-2013
</metadata>
<g transform="translate(0.000000,1600.000000) scale(0.100000,-0.100000)"
fill="#000000" stroke="none">
<path d="M3248 9445 c-2 -2 -31 -5 -64 -9 -170 -18 -340 -105 -435 -224 -87
-108 -120 -216 -115 -376 2 -61 5 -118 8 -126 45 -155 117 -245 254 -317 82
-43 225 -95 329 -119 227 -52 377 -117 414 -178 36 -58 25 -148 -25 -194 -54
-51 -110 -67 -234 -67 -182 0 -327 50 -494 169 -42 31 -80 56 -84 56 -4 -1
-24 -23 -45 -49 -21 -27 -46 -57 -55 -68 -10 -10 -48 -55 -85 -100 l-67 -81
42 -35 c211 -170 466 -264 738 -272 149 -4 244 8 355 46 268 92 408 293 399
574 -3 101 -25 195 -54 232 -11 14 -20 31 -20 37 0 22 -134 146 -158 146 -6 0
-12 3 -14 8 -1 4 -37 23 -78 43 -78 37 -150 61 -380 125 -152 42 -254 84 -283
117 -62 70 -54 177 17 231 71 54 208 66 346 31 73 -18 224 -88 295 -136 31
-21 50 -28 57 -21 26 26 216 308 212 314 -11 17 -127 90 -201 127 -74 37 -182
76 -234 86 -13 3 -35 7 -49 10 -76 14 -282 29 -292 20z"/>
<path d="M5239 9446 c-2 -2 -20 -7 -39 -10 -77 -13 -98 -18 -179 -46 -302
-105 -535 -362 -618 -679 -21 -79 -25 -122 -27 -241 0 -80 3 -165 7 -190 5
-25 9 -52 11 -60 17 -104 80 -247 159 -365 78 -114 225 -239 362 -307 58 -29
194 -74 245 -82 19 -3 46 -8 60 -11 34 -8 254 -8 310 0 235 34 405 118 579
285 l54 52 -138 138 -138 138 -71 -60 c-270 -226 -632 -220 -842 15 -157 176
-200 471 -102 692 162 366 599 451 931 181 29 -23 57 -45 63 -49 7 -4 60 49
135 136 68 78 127 145 132 148 25 18 -28 71 -158 161 -71 48 -206 108 -280
124 -11 2 -33 7 -50 10 -16 4 -41 9 -55 12 -32 5 -346 13 -351 8z"/>
<path d="M7030 9434 c-173 -37 -317 -98 -434 -187 -342 -255 -474 -693 -341
-1127 21 -69 89 -194 146 -270 193 -256 490 -401 826 -401 210 -1 369 38 533
128 88 49 109 65 210 163 227 221 325 512 285 849 -7 61 -11 76 -50 196 -45
136 -144 290 -250 387 -16 15 -37 34 -45 41 -98 91 -304 186 -480 222 -69 14
-333 14 -400 -1z m345 -394 c257 -58 438 -300 438 -585 0 -219 -89 -400 -255
-513 -95 -65 -187 -93 -315 -98 -294 -9 -532 192 -583 494 -13 76 -8 199 10
267 6 22 12 45 13 50 7 27 68 143 88 169 106 128 220 198 370 224 57 10 171 7
234 -8z"/>
<path d="M7133 8932 c-12 -2 -34 -17 -49 -35 -22 -26 -25 -38 -21 -71 7 -49
35 -73 97 -81 172 -24 276 -109 315 -256 8 -29 14 -55 13 -58 -6 -55 31 -106
82 -113 37 -6 87 23 100 56 13 34 3 139 -20 203 -57 162 -180 283 -337 331
-69 21 -140 31 -180 24z"/>
<path d="M886 9411 c-2 -3 -4 -301 -5 -661 0 -567 -2 -663 -16 -715 -35 -132
-133 -196 -277 -181 -99 10 -199 65 -286 156 l-33 35 -50 -55 c-28 -30 -74
-81 -102 -114 -28 -32 -66 -74 -84 -94 -38 -41 -36 -48 36 -114 92 -85 192
-144 304 -178 94 -29 113 -32 237 -35 314 -8 529 106 643 343 23 48 42 108 36
114 -1 2 3 12 9 24 6 11 14 56 17 100 4 58 8 1110 5 1355 l0 26 -215 0 c-119
0 -217 -3 -219 -6z"/>
<path d="M1776 9411 c-2 -3 -4 -439 -4 -969 l0 -962 216 2 215 3 -1 955 c0
525 -1 960 -1 966 -1 12 -418 17 -425 5z"/>
<path d="M8260 9408 c0 -7 245 -623 275 -693 8 -16 36 -86 63 -155 89 -225
253 -634 266 -665 7 -16 48 -118 91 -225 43 -107 80 -197 82 -200 3 -2 88 -5
191 -5 l187 0 26 65 c151 377 293 731 304 755 7 17 94 233 193 480 99 248 198
494 220 548 38 95 39 97 18 102 -11 2 -115 3 -231 2 l-210 -2 -58 -160 c-33
-88 -102 -275 -154 -415 -52 -140 -100 -270 -107 -290 -7 -19 -50 -133 -95
-253 -44 -119 -81 -223 -81 -230 -1 -23 -18 17 -85 198 -37 99 -95 257 -130
350 -35 94 -93 251 -130 350 -37 99 -89 241 -117 316 l-51 136 -234 0 c-128 0
-233 -4 -233 -9z"/>
<path d="M10502 9401 c-4 -9 -7 -443 -7 -966 l1 -950 737 -3 c405 -1 737 1
738 5 0 5 1 90 2 191 l2 182 -526 0 -527 0 2 203 1 202 450 0 c248 -1 452 2
455 6 4 6 5 345 1 370 -1 4 -198 7 -438 7 -241 0 -445 0 -454 1 -14 1 -16 23
-15 194 l1 192 505 2 c278 0 511 2 518 2 9 1 12 46 12 189 l0 189 -725 0
c-657 0 -727 -1 -733 -16z"/>
<path d="M12355 9412 c-3 -3 -5 -439 -5 -969 l0 -963 215 0 215 0 0 310 0 310
167 -2 167 -3 206 -307 205 -307 252 -1 252 0 -42 62 c-23 34 -50 71 -59 82
-10 11 -18 25 -18 32 0 7 -4 14 -8 16 -4 2 -43 55 -86 118 -42 63 -117 173
-167 245 -49 71 -89 133 -89 136 0 4 11 10 25 13 50 13 152 82 216 146 111
112 166 254 167 431 0 52 -4 117 -9 144 -6 28 -13 61 -15 75 -10 48 -73 166
-114 213 -84 96 -207 164 -365 203 -61 15 -134 18 -587 19 -285 1 -520 0 -523
-3z m970 -396 c98 -26 154 -69 188 -146 24 -53 27 -155 7 -214 -29 -87 -125
-156 -241 -173 -43 -6 -359 -9 -476 -4 l-23 1 0 275 0 275 248 0 c174 0 262
-4 297 -14z"/>
<path d="M14090 9411 c0 -3 30 -51 65 -106 36 -55 70 -109 75 -120 8 -16 254
-402 290 -455 5 -8 31 -49 56 -90 26 -41 54 -86 64 -100 9 -14 55 -86 103
-161 l86 -136 0 -254 c0 -140 1 -311 1 -381 l0 -128 214 0 214 0 0 384 c0 284
3 389 12 406 7 13 46 75 87 139 42 64 87 134 101 156 14 22 38 59 54 82 15 23
28 44 28 48 0 3 5 11 11 18 11 13 424 659 439 688 9 15 -9 16 -234 16 l-243 0
-15 -26 c-8 -14 -99 -165 -203 -336 -103 -170 -195 -323 -204 -339 -44 -77
-43 -77 -94 8 -26 42 -47 81 -47 86 0 6 -4 10 -9 10 -5 0 -11 8 -14 18 -4 9
-16 34 -29 54 -13 21 -74 124 -137 230 -63 106 -129 216 -147 244 l-32 52
-246 -1 c-135 0 -246 -3 -246 -6z"/>
<path d="M8169 7752 c-24 -25 -279 -268 -342 -326 -19 -17 -25 -31 -20 -40 4
-8 72 -81 149 -163 78 -81 156 -164 174 -183 153 -165 416 -437 441 -455 38
-29 100 -44 171 -42 60 2 82 7 123 31 100 59 143 132 143 247 0 107 -23 148
-189 321 -75 79 -169 178 -210 222 -41 43 -101 107 -134 141 -33 35 -105 111
-159 169 -55 58 -104 106 -110 105 -6 -1 -23 -13 -37 -27z"/>
</g>
</svg>
